<?xml version="1.0"?><svg version="1.2" baseProfile="tiny-ps" viewBox="0 0 300 300" xmlns="http://www.w3.org/2000/svg" xmlns:xlink="http://www.w3.org/1999/xlink"><title>femo-logo</title><g><g fill="#020202" transform="matrix(.1 0 0 -.1 0 300)"><path d="M705 1845c-16-9-40-28-52-43l-23-27v-65l-25-16-25-16v-65l25-11 24-11 3-148 3-148h90l5 155 5 155 45 5 45 5v70l-39 6-38 6-9 14c-12 19-11 25 7 43l15 16h59l6 27 7 26-10 16-10 16-39 3-39 2-30-15zm270-147c-16-6-45-21-63-35l-32-24-21-41-21-41 4-68 4-68 30-38c36-44 94-79 145-88l36-6 69 23 69 23 2 15 3 15-21 24-20 25-32-13c-18-8-51-16-74-18l-43-5-30 30c-16 17-30 35-30 41v11l68 2c37 1 97 2 133 3l67 1 16 13 16 13v-167l9-14 9-14 37 1c20 1 40 4 45 7l10 6v220l14 34 14 33 20 11c12 6 32 11 45 11h24l19-21 19-21 6-130 6-131 18-13 17-13 32 6c17 3 34 11 38 17l8 11v246l25 24 24 25h68l19-21 19-21 5-127 5-126 8-12 8-13h65l12 12 12 12v221l-11 45-10 45-22 23c-12 13-34 30-49 38l-27 14h-86l-40-25-40-24-24-1h-23l-31 26-31 26-51-7c-64-9-120-11-170-5l-40 5-5-80-5-80-14 43-15 43-34 30c-19 17-45 35-59 40-32 12-110 10-148-3zm131-101 27-24-6-16-6-17H961l-7 11-6 11 28 29 28 29h75l27-23zm939 99c-41-18-84-63-106-111l-19-40v-81l28-55 27-54 50-27 50-28h120l40 19 41 18 26 31 26 31 12 52 13 52-12 53-12 54-27 32-26 31-41 18-40 19-60-1h-60l-30-13zm143-89c13-6 30-24 38-39l14-27v-93l-34-34-34-34h-26c-15 0-40 7-56 15l-30 15-15 30-15 29v79l27 32c42 50 72 56 131 27zm272-190-25-12-9-28-10-28 10-17c6-9 22-24 37-32l25-14 26 12 26 12 10 24 9 24-6 21-6 22-28 14c-33 18-28 18-59 2z"/></g></g></svg>